<svg width="500" height="500" fill="none" xmlns="http://www.w3.org/2000/svg"><g clip-path="url(#a)"><circle cx="250" cy="250" r="250" fill="#5956FF"/><circle cx="250" cy="250" r="215" fill="#fff"/><path d="M347.645 353.158c2.845 2.845 5.442 4.948 7.793 6.309 2.35 1.237 4.205 1.917 5.566 2.041 1.361.124 3.278.185 5.752.185 2.598 0 6.123-1.175 10.576-3.525l5.938 13.359c-8.288 10.267-18.493 17.504-30.616 21.709-5.071 1.732-9.153 2.598-12.246 2.598-11.751 0-21.647-2.969-29.687-8.906-8.041-5.938-14.968-12.803-20.782-20.596-5.813-7.793-11.318-16.699-16.513-26.719-9.649-18.307-17.071-36.924-22.266-55.849-11.133 1.484-23.317 2.226-36.553 2.226v40.821c0 10.019.743 26.038 2.227 48.056l.742 11.133c-10.514 3.216-23.069 4.824-37.666 4.824-14.472 0-23.688-1.608-27.646-4.824 3.587-26.1 5.381-46.016 5.381-59.746V177.445c0-11.009-.99-18.06-2.969-21.152-1.979-3.092-3.278-5.072-3.897-5.938-.618-.989-1.731-1.917-3.34-2.783-1.484-.989-2.535-1.67-3.154-2.041-1.361-.618-3.525-1.422-6.494-2.412-1.855-4.824-2.783-9.586-2.783-14.287 0-4.824.062-7.793.185-8.906 33.151-5.072 69.766-7.608 109.844-7.608h10.576c26.348.495 48.861 6.989 67.539 19.483 9.154 6.185 16.452 14.225 21.895 24.121 5.443 9.896 8.164 21.09 8.164 33.584 0 20.781-5.01 38.532-15.029 53.252-9.896 14.596-26.286 25.605-49.17 33.027 9.648 12.988 17.75 24.121 24.306 33.399 6.556 9.277 11.875 16.637 15.957 22.08 4.082 5.442 7.422 9.71 10.02 12.802a288.742 288.742 0 0 0 8.35 9.092Zm-49.356-163.281c0-32.656-19.421-48.984-58.262-48.984-7.298 0-15.771.494-25.42 1.484V257.23c43.789-1.855 69.952-13.483 78.487-34.882 3.463-9.03 5.195-19.854 5.195-32.471Z" fill="#5956FF"/></g><defs><clipPath id="a"><path fill="#fff" d="M0 0h500v500H0z"/></clipPath></defs></svg>